<svg aria-hidden="true" style="position: absolute; width: 0; height: 0; overflow: hidden;" version="1.1" xmlns="http://www.w3.org/2000/svg" xmlns:xlink="http://www.w3.org/1999/xlink">
<defs>
<symbol id="icon-exotic" viewBox="0 0 162 32">
<path fill="none" stroke="#79a35d" style="stroke: var(--color1, #79a35d)" stroke-linejoin="round" stroke-linecap="round" stroke-miterlimit="4" stroke-width="1.641" d="M5.197 16.889c4.547-2.598 10.393-2.598 12.991 2.598 1.099-0.561 2.325-0.828 3.558-0.775s2.431 0.425 3.478 1.079c1.047 0.654 1.906 1.568 2.494 2.653s0.886 2.304 0.863 3.538"></path>
<path fill="none" stroke="#79a35d" style="stroke: var(--color1, #79a35d)" stroke-linejoin="round" stroke-linecap="round" stroke-miterlimit="4" stroke-width="1.641" d="M6.691 23.242c7.171-1.975 11.238-8.951 9.094-15.59-0.78-2.455-0.844-5.054 1.104-5.054 4.183 0 6.496 7.145 6.496 10.393 0 8.444-5.456 15.59-13.628 15.59-3.118 0-7.158 0-7.158-2.598 0-1.949 1.481-2.014 4.092-2.741z"></path>
<path fill="#79a35d" style="fill: var(--color1, #79a35d)" d="M43.060 19.436v-2.872h6.387v2.872h-6.387zM42.992 13.049l0.965-1.149v12.13l-1.080-1.057h7.88v2.872h-9.81v-15.646h9.81v2.849h-7.765zM59.947 25.846l-2.642-4.135h0.85l-2.619 4.135h-3.446l4.273-6.18 0.023 1.126-4.25-6.18h3.446l2.596 4.112h-0.896l2.596-4.112h3.446l-4.25 6.18 0.046-1.126 4.25 6.18h-3.423zM69.533 26.122c-1.164 0-2.19-0.245-3.079-0.735-0.873-0.505-1.555-1.195-2.045-2.068-0.49-0.888-0.735-1.915-0.735-3.079s0.245-2.183 0.735-3.056c0.49-0.888 1.172-1.578 2.045-2.068 0.888-0.505 1.915-0.758 3.079-0.758s2.183 0.253 3.056 0.758c0.888 0.49 1.578 1.179 2.068 2.068 0.49 0.873 0.735 1.892 0.735 3.056s-0.245 2.19-0.735 3.079c-0.49 0.873-1.179 1.562-2.068 2.068-0.873 0.49-1.892 0.735-3.056 0.735zM69.533 23.204c0.827 0 1.501-0.276 2.022-0.827s0.781-1.264 0.781-2.137c0-0.888-0.26-1.608-0.781-2.16s-1.195-0.827-2.022-0.827-1.501 0.276-2.022 0.827c-0.505 0.536-0.758 1.248-0.758 2.137s0.253 1.608 0.758 2.16c0.521 0.551 1.195 0.827 2.022 0.827zM81.683 26.053c-1.149 0-2.060-0.299-2.734-0.896-0.659-0.613-0.988-1.585-0.988-2.918v-7.49l-0.046-0.138 0.62-2.642h2.435v9.787c0 0.49 0.115 0.85 0.345 1.080 0.245 0.214 0.551 0.322 0.919 0.322 0.245 0 0.467-0.015 0.666-0.046 0.199-0.046 0.375-0.092 0.528-0.138v2.803c-0.245 0.092-0.505 0.161-0.781 0.207s-0.597 0.069-0.965 0.069zM76.215 17.392v-2.78h7.214v2.78h-7.214zM88.845 25.846h-3.010v-11.234h3.010v11.234zM85.514 11.12c0-0.551 0.161-0.996 0.482-1.332 0.337-0.352 0.781-0.528 1.332-0.528s0.988 0.176 1.31 0.528c0.337 0.337 0.505 0.781 0.505 1.332 0 0.521-0.168 0.95-0.505 1.287-0.322 0.337-0.758 0.505-1.31 0.505s-0.995-0.168-1.332-0.505c-0.322-0.337-0.482-0.766-0.482-1.287zM96.497 26.122c-1.149 0-2.151-0.253-3.010-0.758s-1.524-1.202-1.999-2.091c-0.46-0.888-0.689-1.907-0.689-3.056 0-1.133 0.23-2.144 0.689-3.033 0.475-0.888 1.141-1.578 1.999-2.068 0.858-0.505 1.861-0.758 3.010-0.758 1.195 0 2.244 0.306 3.147 0.919 0.919 0.597 1.578 1.409 1.976 2.435l-2.757 1.195c-0.23-0.521-0.543-0.927-0.942-1.218-0.382-0.291-0.865-0.436-1.447-0.436-0.75 0-1.378 0.268-1.884 0.804-0.505 0.521-0.758 1.241-0.758 2.16 0 0.934 0.253 1.662 0.758 2.183s1.134 0.781 1.884 0.781c0.583 0 1.065-0.138 1.447-0.414 0.399-0.291 0.712-0.697 0.942-1.218l2.757 1.195c-0.398 1.011-1.057 1.83-1.976 2.458-0.919 0.613-1.968 0.919-3.147 0.919zM109.95 25.846v-12.085c0-0.827 0.145-1.524 0.436-2.091 0.306-0.582 0.728-1.018 1.264-1.31s1.172-0.437 1.907-0.437c0.368 0 0.697 0.023 0.988 0.069s0.528 0.092 0.712 0.138v2.757c-0.153-0.031-0.314-0.061-0.482-0.092-0.153-0.031-0.337-0.046-0.551-0.046-0.383 0-0.689 0.115-0.919 0.345-0.23 0.214-0.345 0.574-0.345 1.080v11.671h-3.010zM115.004 17.621h-6.64v-2.757h6.64v2.757zM118.98 14.612l0.758 3.102v8.133h-3.010v-11.234h2.251zM119.118 19.253l-0.551-0.253v-2.297l0.207-0.253c0.169-0.276 0.422-0.574 0.758-0.896 0.353-0.322 0.751-0.597 1.195-0.827 0.46-0.245 0.935-0.368 1.424-0.368 0.245 0 0.468 0.015 0.666 0.046s0.353 0.084 0.46 0.161v2.734h-0.735c-0.995 0-1.761 0.161-2.297 0.482-0.536 0.306-0.911 0.796-1.126 1.47zM128.662 26.122c-0.843 0-1.516-0.13-2.022-0.391s-0.896-0.605-1.172-1.034c-0.26-0.444-0.436-0.95-0.528-1.516s-0.138-1.156-0.138-1.769v-6.8h3.010v6.823c0 0.689 0.145 1.149 0.436 1.378 0.306 0.23 0.666 0.345 1.080 0.345 0.383 0 0.766-0.069 1.149-0.207s0.743-0.337 1.080-0.597c0.352-0.276 0.643-0.59 0.873-0.942l0.368 1.585h-0.735v-8.386h3.010v11.234h-2.251l-0.62-2.137 0.965 0.023c-0.383 0.444-0.82 0.85-1.31 1.218-0.475 0.368-0.988 0.659-1.539 0.873-0.536 0.199-1.087 0.299-1.654 0.299zM140.695 25.846h-3.010v-11.234h3.010v11.234zM137.364 11.12c0-0.551 0.161-0.996 0.482-1.332 0.336-0.352 0.781-0.528 1.333-0.528s0.988 0.176 1.31 0.528c0.336 0.337 0.505 0.781 0.505 1.332 0 0.521-0.169 0.95-0.505 1.287-0.322 0.337-0.758 0.505-1.31 0.505s-0.996-0.168-1.333-0.505c-0.322-0.337-0.482-0.766-0.482-1.287zM148.048 26.053c-1.149 0-2.060-0.299-2.734-0.896-0.659-0.613-0.988-1.585-0.988-2.918v-7.49l-0.046-0.138 0.62-2.642h2.435v9.787c0 0.49 0.115 0.85 0.345 1.080 0.244 0.214 0.551 0.322 0.919 0.322 0.244 0 0.467-0.015 0.666-0.046 0.199-0.046 0.375-0.092 0.528-0.138v2.803c-0.245 0.092-0.505 0.161-0.781 0.207s-0.597 0.069-0.965 0.069zM142.581 17.392v-2.78h7.214v2.78h-7.214zM156.084 26.145c-0.857 0-1.677-0.176-2.458-0.528-0.766-0.352-1.447-0.965-2.045-1.838l1.838-1.608c0.49 0.551 0.958 0.95 1.401 1.195 0.459 0.23 0.972 0.345 1.539 0.345 0.383 0 0.689-0.092 0.919-0.276s0.345-0.414 0.345-0.689c0-0.184-0.062-0.345-0.184-0.482-0.122-0.153-0.352-0.299-0.689-0.436-0.322-0.138-0.797-0.283-1.424-0.436-1.164-0.306-2.037-0.72-2.619-1.241-0.582-0.536-0.873-1.287-0.873-2.252 0-0.659 0.168-1.256 0.505-1.792 0.337-0.551 0.82-0.988 1.447-1.31 0.643-0.322 1.401-0.482 2.274-0.482 1.026 0 1.899 0.199 2.619 0.597 0.735 0.398 1.325 0.881 1.769 1.447l-1.953 1.631c-0.291-0.306-0.666-0.574-1.126-0.804s-0.995-0.345-1.608-0.345c-0.337 0-0.636 0.077-0.896 0.23s-0.391 0.375-0.391 0.666c0 0.276 0.138 0.505 0.414 0.689 0.291 0.184 0.843 0.375 1.654 0.574 1.378 0.322 2.366 0.758 2.964 1.31s0.896 1.287 0.896 2.206c0 0.735-0.191 1.378-0.574 1.93-0.383 0.536-0.903 0.957-1.562 1.264-0.643 0.291-1.371 0.436-2.183 0.436z"></path>
</symbol>
<symbol id="icon-gluten" viewBox="0 0 157 32">
<path fill="#79a35d" style="fill: var(--color1, #79a35d)" d="M0.951 0.011c0.063-0.004 0.125-0.008 0.189-0.011 0.457 0.085 0.811 0.499 1.129 0.82 0.039 0.039 0.079 0.079 0.119 0.119 0.131 0.13 0.261 0.261 0.391 0.392 0.094 0.094 0.188 0.188 0.282 0.282 0.254 0.254 0.508 0.509 0.762 0.764 0.266 0.267 0.532 0.533 0.798 0.799 0.503 0.504 1.007 1.008 1.51 1.512 0.573 0.574 1.146 1.148 1.719 1.722 1.179 1.18 2.357 2.361 3.535 3.542 0.012-0.037 0.024-0.075 0.037-0.113 0.016-0.050 0.033-0.099 0.050-0.15 0.016-0.049 0.032-0.098 0.049-0.148 0.081-0.234 0.18-0.46 0.282-0.687 0.022-0.048 0.043-0.096 0.066-0.146 0.492-1.083 0.995-2.132 2.176-2.575 0.552-0.17 1.095-0.149 1.643 0.017 0.005-0.066 0.010-0.131 0.016-0.199 0.157-1.202 0.892-2.945 1.855-3.729 0.724-0.453 1.475-0.638 2.318-0.456 0.865 0.295 1.342 0.838 1.777 1.614 0.029 0.051 0.059 0.103 0.089 0.156 0.151 0.265 0.296 0.532 0.429 0.807 0.023-0.031 0.045-0.062 0.069-0.094 0.101-0.136 0.203-0.271 0.305-0.405 0.027-0.037 0.054-0.073 0.082-0.111 0.762-0.966 2.075-1.515 3.225-1.849 0.108-0.031 0.214-0.065 0.321-0.1 0.752-0.222 1.587-0.235 2.295 0.126 0.21 0.125 0.21 0.125 0.374 0.249 0.077 0.052 0.077 0.052 0.156 0.105 0.491 0.454 0.803 1.12 0.843 1.786-0.017 1.622-0.843 3.424-1.934 4.593-0.545 0.491-0.545 0.491-0.811 0.623 0.068 0.035 0.136 0.069 0.206 0.105 1.077 0.557 1.981 1.041 2.389 2.253 0.135 0.757 0.047 1.509-0.397 2.146-0.469 0.569-1.054 0.896-1.699 1.231-0.040 0.021-0.079 0.041-0.12 0.062-0.639 0.328-1.455 0.733-2.187 0.686 0.021 0.055 0.041 0.111 0.062 0.168 0.177 0.636 0.075 1.294-0.187 1.89-0.378 0.63-0.952 1.036-1.59 1.376-0.060 0.032-0.12 0.065-0.181 0.098-0.498 0.263-0.999 0.471-1.533 0.646-0.125 0.042-0.249 0.083-0.374 0.125 0.053 0.053 0.106 0.106 0.16 0.16 1.254 1.252 2.508 2.504 3.762 3.756 0.154 0.154 0.309 0.308 0.463 0.462 0.046 0.046 0.046 0.046 0.093 0.093 0.497 0.497 0.995 0.994 1.493 1.49 0.511 0.509 1.021 1.019 1.531 1.529 0.287 0.286 0.573 0.573 0.86 0.859 0.27 0.269 0.54 0.539 0.809 0.808 0.099 0.099 0.198 0.198 0.297 0.297 0.135 0.135 0.27 0.27 0.405 0.405 0.040 0.039 0.079 0.078 0.12 0.119 0.298 0.3 0.507 0.543 0.519 0.984-0.007 0.366-0.112 0.542-0.368 0.796-0.192 0.159-0.337 0.168-0.583 0.179-0.062 0.004-0.125 0.008-0.189 0.011-0.454-0.085-0.806-0.493-1.122-0.813-0.039-0.038-0.077-0.077-0.117-0.117-0.128-0.128-0.256-0.256-0.383-0.384-0.092-0.092-0.184-0.184-0.277-0.277-0.249-0.249-0.498-0.499-0.747-0.749-0.261-0.261-0.521-0.522-0.782-0.783-0.494-0.494-0.987-0.988-1.48-1.483-0.562-0.563-1.124-1.126-1.685-1.688-1.156-1.157-2.311-2.314-3.466-3.472-0.047 0.052-0.094 0.104-0.142 0.157-0.062 0.069-0.124 0.137-0.187 0.206-0.046 0.051-0.046 0.051-0.093 0.104-0.217 0.238-0.418 0.415-0.7 0.574-0.038 0.022-0.077 0.044-0.117 0.066-0.126 0.070-0.254 0.137-0.382 0.203-0.069 0.036-0.069 0.036-0.14 0.073-1.545 0.796-3.2 1.171-4.902 0.638-0.344-0.116-0.677-0.244-1.005-0.4-0.037-0.017-0.075-0.035-0.113-0.052-0.797-0.37-1.548-0.819-2.218-1.39-0.098-0.065-0.098-0.065-0.213-0.043-0.187 0.070-0.286 0.179-0.427 0.32-0.058 0.058-0.116 0.116-0.176 0.176-0.064 0.065-0.128 0.13-0.192 0.195-0.068 0.068-0.135 0.136-0.203 0.204-0.146 0.146-0.291 0.293-0.436 0.439-0.23 0.232-0.46 0.463-0.69 0.695-0.531 0.533-1.060 1.067-1.59 1.601-0.485 0.489-0.971 0.978-1.457 1.466-0.229 0.23-0.457 0.46-0.685 0.691-0.142 0.143-0.285 0.287-0.427 0.43-0.066 0.066-0.132 0.133-0.197 0.199-0.090 0.091-0.18 0.182-0.271 0.272-0.050 0.051-0.101 0.102-0.153 0.154-0.297 0.254-0.565 0.355-0.949 0.339-0.277-0.042-0.474-0.155-0.659-0.365-0.191-0.287-0.232-0.568-0.167-0.904 0.241-0.492 0.656-0.866 1.041-1.245 0.067-0.067 0.134-0.133 0.201-0.2 0.144-0.143 0.287-0.285 0.431-0.427 0.228-0.224 0.455-0.45 0.681-0.675 0.604-0.6 1.208-1.199 1.813-1.797 0.399-0.394 0.797-0.789 1.194-1.184 0.225-0.224 0.452-0.448 0.678-0.671 0.14-0.139 0.28-0.278 0.42-0.417 0.065-0.065 0.13-0.129 0.196-0.193 0.089-0.087 0.177-0.175 0.265-0.264 0.075-0.074 0.075-0.074 0.151-0.149 0.113-0.126 0.113-0.126 0.086-0.271-0.056-0.125-0.119-0.226-0.201-0.335-0.031-0.042-0.061-0.084-0.093-0.127-0.033-0.045-0.066-0.089-0.1-0.135-1.171-1.629-1.98-3.508-1.676-5.548 0.265-1.466 1.029-3.074 2.206-4.007-0.046-0.046-0.092-0.092-0.14-0.139-1.121-1.118-2.242-2.237-3.362-3.356-0.542-0.541-1.084-1.082-1.626-1.623-0.473-0.471-0.945-0.943-1.417-1.415-0.25-0.25-0.5-0.5-0.751-0.749-0.236-0.235-0.471-0.47-0.706-0.705-0.086-0.086-0.173-0.173-0.259-0.259-0.118-0.118-0.236-0.236-0.354-0.354-0.034-0.034-0.069-0.068-0.104-0.103-0.293-0.295-0.473-0.527-0.485-0.949 0.007-0.366 0.112-0.542 0.368-0.796 0.192-0.159 0.337-0.168 0.583-0.179zM24.066 5.058c-0.864 1.009-1.227 2.417-1.395 3.71 0.882-0.157 1.737-0.314 2.556-0.686 0.040-0.018 0.081-0.036 0.122-0.055 1.205-0.557 1.785-1.482 2.247-2.688 0.158-0.443 0.318-0.899 0.249-1.372-0.112-0.175-0.188-0.281-0.374-0.374-1.163-0.061-2.607 0.645-3.406 1.465zM18.663 3.88c-0.023 0.039-0.046 0.079-0.069 0.119-0.039 0.066-0.039 0.066-0.078 0.133-0.026 0.047-0.053 0.094-0.080 0.142s-0.055 0.096-0.083 0.146c-0.606 1.071-1.020 2.202-0.707 3.434 0.273 0.958 0.807 2.152 1.534 2.846 0.926-1.208 1.733-2.609 1.621-4.177-0.168-0.924-0.566-2.108-1.282-2.765-0.288-0.195-0.636-0.153-0.857 0.122zM14.441 8.082c-0.699 0.881-1.254 2.182-1.247 3.304 0 0.075 0.001 0.15 0.001 0.228 0.048 0.361 0.292 0.556 0.545 0.797 0.048 0.048 0.097 0.095 0.147 0.145 0.154 0.152 0.309 0.302 0.465 0.452 0.105 0.103 0.21 0.206 0.315 0.309 0.256 0.252 0.514 0.502 0.773 0.751 0.198-0.186 0.309-0.398 0.429-0.639 0.022-0.044 0.044-0.088 0.066-0.133 0.544-1.123 0.717-2.146 0.316-3.343-0.123-0.323-0.276-0.63-0.436-0.935-0.021-0.040-0.042-0.081-0.063-0.123-0.269-0.566-0.269-0.566-0.747-0.937-0.244 0-0.351 0.010-0.561 0.125zM20.738 12.259c0.666 0.546 1.383 0.99 2.182 1.309 0.040 0.016 0.079 0.032 0.12 0.049 1.15 0.45 2.162 0.31 3.273-0.165 0.849-0.338 0.849-0.338 1.47-0.944 0.030-0.262 0.028-0.394-0.119-0.616-0.224-0.253-0.51-0.391-0.808-0.541-0.058-0.030-0.116-0.060-0.176-0.090-2.152-1.081-4.132-0.443-5.942 0.998zM9.875 12.739c-0.073 0.119-0.141 0.239-0.207 0.362-0.024 0.044-0.048 0.088-0.073 0.133-0.209 0.39-0.376 0.788-0.516 1.208-0.020 0.055-0.040 0.111-0.060 0.168-0.357 1.105-0.050 2.13 0.449 3.127 0.286 0.554 0.582 1.088 0.983 1.569 0.249-0.083 0.333-0.241 0.472-0.452 0.027-0.041 0.054-0.082 0.082-0.124 0.701-1.096 1.346-2.402 1.106-3.733-0.189-0.859-0.642-2.177-1.41-2.674-0.378-0.066-0.611 0.124-0.826 0.418zM17.434 15.875c0 0.227 0.035 0.246 0.19 0.402 0.041 0.042 0.083 0.084 0.126 0.128 0.045 0.045 0.091 0.090 0.138 0.137s0.093 0.093 0.14 0.141c0.098 0.099 0.197 0.197 0.295 0.295 0.151 0.15 0.301 0.302 0.45 0.454 0.096 0.096 0.191 0.191 0.287 0.287 0.045 0.045 0.090 0.091 0.136 0.138 0.042 0.042 0.085 0.084 0.129 0.127 0.055 0.055 0.055 0.055 0.112 0.112 0.308 0.226 0.773 0.175 1.135 0.132 0.661-0.115 1.28-0.373 1.878-0.669 0.041-0.020 0.081-0.040 0.123-0.060 0.314-0.16 0.656-0.339 0.879-0.618 0.050-0.21 0.024-0.361-0.031-0.569-0.545-0.752-1.899-1.185-2.778-1.332-1.162-0.151-2.206 0.367-3.207 0.896zM12.072 20.926c1.137 0.937 2.655 1.779 4.172 1.639 0.948-0.128 1.981-0.644 2.748-1.202 0.131-0.197 0.163-0.323 0.155-0.558-0.061-0.255-0.257-0.365-0.467-0.502-0.054-0.035-0.107-0.071-0.163-0.107-2.254-1.392-4.46-0.851-6.446 0.73z"></path>
<path fill="#79a35d" style="fill: var(--color1, #79a35d)" d="M49.122 24.704c-1.619 0-3.042-0.354-4.268-1.061-1.226-0.723-2.177-1.706-2.853-2.947s-1.014-2.649-1.014-4.221c0-1.226 0.196-2.35 0.589-3.372 0.409-1.022 0.975-1.902 1.698-2.641 0.739-0.755 1.603-1.336 2.594-1.745s2.075-0.613 3.254-0.613c1.839 0 3.356 0.393 4.551 1.179 1.195 0.77 2.13 1.839 2.806 3.207l-2.877 1.085c-0.582-0.912-1.242-1.548-1.981-1.91-0.723-0.377-1.556-0.566-2.499-0.566-0.959 0-1.816 0.228-2.57 0.684-0.739 0.44-1.328 1.061-1.768 1.863-0.424 0.802-0.637 1.745-0.637 2.829 0 1.037 0.212 1.957 0.637 2.759 0.44 0.802 1.030 1.43 1.768 1.886 0.755 0.44 1.611 0.66 2.57 0.66 0.912 0 1.721-0.181 2.429-0.542 0.723-0.377 1.297-0.888 1.721-1.533 0.424-0.66 0.652-1.423 0.684-2.287l0.778 1.25h-5.824v-2.806h7.828c0.063 0.22 0.11 0.464 0.141 0.731 0.031 0.252 0.047 0.503 0.047 0.755 0 1.069-0.204 2.051-0.613 2.947s-0.975 1.674-1.698 2.334c-0.707 0.66-1.533 1.171-2.476 1.533-0.927 0.362-1.933 0.542-3.018 0.542zM61.404 24.539c-0.519 0-0.998-0.11-1.438-0.33-0.424-0.22-0.77-0.558-1.037-1.014-0.251-0.472-0.377-1.077-0.377-1.816v-13.016h3.065v11.931c0 0.55 0.11 0.912 0.33 1.085 0.22 0.157 0.487 0.236 0.802 0.236v2.759c-0.173 0.063-0.385 0.102-0.637 0.118-0.236 0.031-0.472 0.047-0.707 0.047zM68.426 24.704c-0.865 0-1.556-0.134-2.075-0.401s-0.92-0.621-1.203-1.061c-0.267-0.456-0.448-0.975-0.542-1.556s-0.141-1.187-0.141-1.816v-6.979h3.089v7.003c0 0.707 0.149 1.179 0.448 1.415 0.314 0.236 0.684 0.354 1.108 0.354 0.393 0 0.786-0.071 1.179-0.212s0.762-0.346 1.108-0.613c0.362-0.283 0.66-0.605 0.896-0.967l0.377 1.627h-0.755v-8.606h3.089v11.53h-2.311l-0.637-2.193 0.99 0.024c-0.393 0.456-0.841 0.872-1.344 1.25-0.487 0.377-1.014 0.676-1.58 0.896-0.55 0.204-1.116 0.307-1.698 0.307zM82.497 24.633c-1.179 0-2.114-0.307-2.806-0.92-0.676-0.629-1.014-1.627-1.014-2.995v-7.687l-0.047-0.141 0.637-2.712h2.499v10.045c0 0.503 0.118 0.872 0.354 1.108 0.252 0.22 0.566 0.33 0.943 0.33 0.252 0 0.479-0.016 0.684-0.047 0.204-0.047 0.385-0.094 0.542-0.141v2.877c-0.252 0.094-0.519 0.165-0.802 0.212s-0.613 0.071-0.99 0.071zM76.885 15.744v-2.853h7.404v2.853h-7.404zM91.574 24.657c-1.148 0-2.154-0.244-3.018-0.731-0.865-0.503-1.533-1.203-2.004-2.099s-0.707-1.949-0.707-3.16c0-1.195 0.236-2.24 0.707-3.136 0.472-0.912 1.139-1.619 2.004-2.122 0.864-0.519 1.87-0.778 3.018-0.778 1.163 0 2.169 0.259 3.018 0.778 0.864 0.519 1.533 1.234 2.004 2.146 0.472 0.896 0.707 1.926 0.707 3.089 0 0.173-0.008 0.346-0.024 0.519 0 0.157-0.016 0.291-0.047 0.401h-8.866v-2.311h6.531l-0.472 1.108c0-0.975-0.236-1.768-0.707-2.381-0.456-0.613-1.171-0.92-2.146-0.92-0.849 0-1.533 0.267-2.051 0.802-0.519 0.519-0.778 1.218-0.778 2.099v1.25c0 0.927 0.259 1.658 0.778 2.193 0.534 0.519 1.257 0.778 2.169 0.778 0.802 0 1.43-0.165 1.886-0.495s0.849-0.739 1.179-1.226l2.146 1.226c-0.519 0.959-1.226 1.698-2.122 2.216-0.881 0.503-1.949 0.755-3.207 0.755zM106.125 12.632c0.786 0 1.415 0.134 1.886 0.401 0.487 0.267 0.849 0.629 1.085 1.085 0.251 0.456 0.416 0.975 0.495 1.556 0.078 0.566 0.118 1.155 0.118 1.768v6.979h-3.089v-7.003c0-0.707-0.141-1.179-0.424-1.415-0.268-0.236-0.613-0.354-1.037-0.354-0.393 0-0.794 0.079-1.203 0.236-0.409 0.141-0.794 0.354-1.155 0.637-0.346 0.267-0.645 0.574-0.896 0.92l-0.401-1.603h0.778v8.583h-3.089v-11.53h2.311l0.637 2.216-0.99-0.047c0.408-0.472 0.872-0.888 1.391-1.25 0.534-0.362 1.1-0.644 1.698-0.849 0.597-0.22 1.226-0.33 1.886-0.33zM119.176 24.421v-12.403c0-0.849 0.149-1.564 0.448-2.146 0.314-0.597 0.746-1.045 1.297-1.344s1.203-0.448 1.957-0.448c0.377 0 0.715 0.024 1.014 0.071s0.542 0.094 0.731 0.141v2.829c-0.157-0.031-0.323-0.063-0.495-0.094-0.157-0.031-0.346-0.047-0.566-0.047-0.393 0-0.707 0.118-0.943 0.354-0.236 0.22-0.354 0.589-0.354 1.108v11.978h-3.089zM124.363 15.98h-6.814v-2.829h6.814v2.829zM128.444 12.891l0.778 3.183v8.347h-3.089v-11.53h2.311zM128.585 17.654l-0.566-0.259v-2.358l0.212-0.259c0.173-0.283 0.432-0.589 0.778-0.92 0.361-0.33 0.771-0.613 1.226-0.849 0.472-0.252 0.959-0.377 1.462-0.377 0.252 0 0.479 0.016 0.684 0.047s0.361 0.086 0.472 0.165v2.806h-0.755c-1.021 0-1.808 0.165-2.358 0.495-0.55 0.314-0.936 0.817-1.155 1.509zM139.077 24.657c-1.148 0-2.154-0.244-3.018-0.731-0.865-0.503-1.533-1.203-2.004-2.099s-0.707-1.949-0.707-3.16c0-1.195 0.236-2.24 0.707-3.136 0.472-0.912 1.139-1.619 2.004-2.122 0.864-0.519 1.87-0.778 3.018-0.778 1.163 0 2.169 0.259 3.018 0.778 0.864 0.519 1.533 1.234 2.004 2.146 0.472 0.896 0.707 1.926 0.707 3.089 0 0.173-0.008 0.346-0.024 0.519 0 0.157-0.016 0.291-0.047 0.401h-8.866v-2.311h6.531l-0.472 1.108c0-0.975-0.236-1.768-0.707-2.381-0.456-0.613-1.171-0.92-2.146-0.92-0.849 0-1.533 0.267-2.051 0.802-0.519 0.519-0.778 1.218-0.778 2.099v1.25c0 0.927 0.259 1.658 0.778 2.193 0.534 0.519 1.257 0.778 2.169 0.778 0.802 0 1.43-0.165 1.886-0.495s0.849-0.739 1.179-1.226l2.146 1.226c-0.519 0.959-1.226 1.698-2.122 2.216-0.881 0.503-1.949 0.755-3.207 0.755zM151.741 24.657c-1.148 0-2.154-0.244-3.018-0.731-0.865-0.503-1.533-1.203-2.004-2.099s-0.707-1.949-0.707-3.16c0-1.195 0.236-2.24 0.707-3.136 0.472-0.912 1.139-1.619 2.004-2.122 0.864-0.519 1.87-0.778 3.018-0.778 1.163 0 2.169 0.259 3.018 0.778 0.864 0.519 1.533 1.234 2.004 2.146 0.472 0.896 0.707 1.926 0.707 3.089 0 0.173-0.008 0.346-0.024 0.519 0 0.157-0.016 0.291-0.047 0.401h-8.866v-2.311h6.531l-0.472 1.108c0-0.975-0.236-1.768-0.707-2.381-0.456-0.613-1.171-0.92-2.146-0.92-0.849 0-1.533 0.267-2.051 0.802-0.519 0.519-0.778 1.218-0.778 2.099v1.25c0 0.927 0.259 1.658 0.778 2.193 0.534 0.519 1.257 0.778 2.169 0.778 0.802 0 1.43-0.165 1.886-0.495s0.849-0.739 1.179-1.226l2.146 1.226c-0.519 0.959-1.226 1.698-2.122 2.216-0.881 0.503-1.949 0.755-3.207 0.755z"></path>
</symbol>
<symbol id="icon-vegan" viewBox="0 0 107 32">
<path fill="#79a35d" style="fill: var(--color1, #79a35d)" d="M13.812 9c0.058 0.040 0.058 0.040 0.117 0.081 0.942 0.662 1.815 1.432 2.508 2.356 0.046 0.059 0.093 0.119 0.141 0.18 1.278 1.656 2.066 3.581 2.633 5.579 0.028 0.116 0.028 0.116 0.101 0.179 0.032-0.061 0.064-0.121 0.097-0.184 1.285-2.39 3.315-3.875 5.892-4.659 1.434-0.418 2.885-0.618 4.377-0.614 0.176 0 0.352-0.001 0.528-0.003 0.113-0 0.227-0 0.34-0 0.052-0.001 0.104-0.001 0.157-0.002 0.417 0.003 0.709 0.085 1.036 0.36 0.275 0.33 0.281 0.63 0.28 1.042 0 0.055 0.001 0.11 0.001 0.167 0.001 0.179 0 0.358-0 0.537-0 0.091-0 0.091-0 0.185-0.003 0.924-0.035 1.823-0.207 2.733-0.011 0.059-0.021 0.118-0.032 0.179-0.482 2.596-1.657 5.181-3.886 6.729-2.742 1.845-5.894 2.166-9.117 2.166-0.17 0-0.34 0-0.51 0.001-1.576 0.008-3.166-0.013-4.724-0.278-0.061-0.010-0.061-0.010-0.123-0.020-1.886-0.311-3.764-0.797-5.483-1.652-0.044-0.022-0.089-0.044-0.134-0.066-0.655-0.326-1.27-0.696-1.866-1.121-0.034-0.025-0.069-0.049-0.104-0.074-1.207-0.87-2.199-1.939-3.021-3.176-0.038-0.056-0.038-0.056-0.076-0.114-1.315-2.011-2.048-4.366-2.444-6.718-0.008-0.045-0.015-0.091-0.023-0.138-0.213-1.274-0.292-2.532-0.289-3.824 0-0.233-0.001-0.465-0.003-0.698-0-0.149-0-0.298-0-0.448-0.001-0.069-0.001-0.138-0.002-0.209 0.003-0.47 0.049-0.784 0.36-1.153 2.256-1.88 11.297 1.157 13.477 2.676zM2 8c-0.077 3.635 0.445 7.664 2.625 10.688 0.024 0.033 0.048 0.067 0.073 0.101 2.197 3.036 5.614 4.387 9.212 4.967 0.84 0.127 1.678 0.207 2.528 0.182-0.325-0.394-0.683-0.751-1.046-1.11-0.068-0.067-0.135-0.134-0.203-0.201-0.145-0.143-0.289-0.287-0.434-0.43-0.229-0.227-0.458-0.454-0.686-0.682-0.039-0.038-0.077-0.077-0.117-0.117-0.079-0.079-0.158-0.157-0.237-0.236-0.532-0.529-1.064-1.058-1.596-1.585-0.36-0.357-0.72-0.714-1.079-1.072-0.19-0.189-0.38-0.378-0.57-0.566-0.179-0.177-0.358-0.354-0.536-0.533-0.065-0.065-0.131-0.13-0.197-0.194-0.722-0.708-0.722-0.708-0.742-1.213 0.021-0.308 0.119-0.516 0.318-0.747 0.257-0.18 0.48-0.21 0.785-0.219 0.55 0.112 0.922 0.588 1.3 0.969 0.071 0.071 0.142 0.142 0.213 0.213 0.192 0.192 0.383 0.384 0.574 0.576 0.2 0.201 0.4 0.402 0.601 0.602 0.379 0.38 0.758 0.76 1.136 1.14 0.431 0.433 0.863 0.866 1.294 1.298 0.887 0.889 1.774 1.78 2.661 2.67 0.052-0.193 0.066-0.344 0.050-0.543-0.005-0.058-0.009-0.116-0.014-0.176-0.006-0.063-0.011-0.126-0.017-0.191-0.006-0.066-0.012-0.133-0.018-0.201-0.351-3.762-1.485-7.629-4.447-10.168-0.613-0.501-1.297-0.909-1.992-1.284-0.065-0.036-0.13-0.071-0.196-0.108-2.802-1.479-6.114-1.863-9.241-1.829zM22.078 16.805c-1.298 1.492-1.951 3.683-2.016 5.633 0.295-0.246 0.574-0.503 0.844-0.777 0.038-0.038 0.076-0.077 0.115-0.116 0.082-0.082 0.163-0.165 0.245-0.247 0.129-0.13 0.258-0.261 0.388-0.391 0.368-0.37 0.735-0.74 1.102-1.11 0.225-0.227 0.45-0.454 0.676-0.681 0.086-0.086 0.171-0.173 0.257-0.259 0.119-0.121 0.239-0.241 0.359-0.361 0.035-0.036 0.070-0.072 0.106-0.108 0.273-0.271 0.461-0.375 0.843-0.406 0.249 0.008 0.418 0.068 0.629 0.207 0.253 0.274 0.336 0.488 0.33 0.865-0.057 0.445-0.366 0.77-0.674 1.070-0.040 0.040-0.081 0.080-0.122 0.122-0.132 0.131-0.265 0.262-0.398 0.393-0.092 0.092-0.184 0.183-0.276 0.275-0.242 0.24-0.484 0.48-0.726 0.719-0.389 0.384-0.777 0.77-1.165 1.155-0.136 0.135-0.272 0.269-0.408 0.404-0.083 0.082-0.165 0.164-0.248 0.245-0.057 0.056-0.057 0.056-0.116 0.114-0.087 0.087-0.173 0.175-0.259 0.264 0 0.021 0 0.041 0 0.062 1.323-0.028 2.757-0.403 3.937-1 0.036-0.018 0.071-0.035 0.108-0.053 1.87-0.929 3.076-2.424 3.747-4.384 0.48-1.466 0.678-2.963 0.645-4.5-2.918-0.108-5.884 0.714-7.922 2.867z"></path>
<path fill="#79a35d" style="fill: var(--color1, #79a35d)" d="M46.151 26.105l-5.541-16.057h3.16l4.763 13.935h-1.037l4.787-13.935h3.112l-5.541 16.057h-3.702zM60.764 26.341c-1.148 0-2.154-0.244-3.018-0.731-0.865-0.503-1.533-1.203-2.004-2.099s-0.707-1.949-0.707-3.16c0-1.195 0.236-2.24 0.707-3.136 0.472-0.912 1.14-1.619 2.004-2.122 0.864-0.519 1.871-0.778 3.018-0.778 1.163 0 2.169 0.259 3.018 0.778 0.864 0.519 1.533 1.234 2.004 2.146 0.472 0.896 0.707 1.926 0.707 3.089 0 0.173-0.008 0.346-0.024 0.519 0 0.157-0.016 0.291-0.047 0.401h-8.866v-2.311h6.531l-0.472 1.108c0-0.975-0.236-1.768-0.707-2.381-0.456-0.613-1.171-0.92-2.146-0.92-0.849 0-1.533 0.267-2.051 0.802-0.519 0.519-0.778 1.218-0.778 2.099v1.25c0 0.927 0.259 1.658 0.778 2.193 0.534 0.519 1.258 0.778 2.169 0.778 0.802 0 1.43-0.165 1.886-0.495s0.849-0.739 1.179-1.226l2.146 1.226c-0.519 0.959-1.226 1.698-2.122 2.216-0.88 0.503-1.949 0.755-3.207 0.755zM73.5 30.821c-0.629 0-1.258-0.094-1.886-0.283-0.613-0.189-1.179-0.495-1.698-0.92-0.519-0.409-0.959-0.967-1.32-1.674l-0.189-0.377 2.287-1.179c0.393 0.629 0.802 1.085 1.226 1.368 0.424 0.299 0.959 0.448 1.603 0.448 0.802 0 1.446-0.252 1.933-0.755 0.503-0.503 0.755-1.273 0.755-2.311v-2.9h0.212v-4.952h-0.212l0.755-2.712h2.334v9.95c0 1.352-0.244 2.499-0.731 3.443-0.472 0.943-1.14 1.651-2.004 2.122-0.865 0.487-1.886 0.731-3.065 0.731zM73.099 25.469c-1.037 0-1.957-0.236-2.759-0.707s-1.43-1.124-1.886-1.957c-0.456-0.833-0.684-1.8-0.684-2.9s0.22-2.067 0.66-2.9c0.456-0.849 1.085-1.509 1.886-1.981s1.721-0.707 2.759-0.707c0.975 0 1.831 0.236 2.57 0.707 0.739 0.456 1.313 1.108 1.721 1.957 0.409 0.833 0.613 1.808 0.613 2.924 0 1.148-0.204 2.138-0.613 2.971-0.393 0.817-0.959 1.454-1.698 1.91-0.723 0.456-1.58 0.684-2.57 0.684zM73.641 22.757c0.802 0 1.454-0.267 1.957-0.802s0.755-1.226 0.755-2.075-0.251-1.54-0.755-2.075c-0.503-0.534-1.155-0.802-1.957-0.802s-1.462 0.267-1.981 0.802c-0.503 0.534-0.755 1.234-0.755 2.099 0 0.833 0.252 1.517 0.755 2.051 0.519 0.534 1.179 0.802 1.981 0.802zM85.344 26.435c-0.849 0-1.595-0.157-2.24-0.472-0.644-0.33-1.14-0.786-1.485-1.368-0.346-0.597-0.519-1.289-0.519-2.075s0.181-1.47 0.542-2.051c0.377-0.582 0.888-1.030 1.533-1.344 0.645-0.33 1.375-0.495 2.193-0.495 1.116 0 2.020 0.259 2.712 0.778 0.707 0.503 1.187 1.226 1.438 2.169l-1.438-0.189v-2.782c0-0.44-0.157-0.833-0.472-1.179s-0.825-0.519-1.533-0.519c-0.44 0-0.927 0.055-1.462 0.165-0.534 0.094-1.092 0.283-1.674 0.566l-0.92-2.264c0.676-0.33 1.391-0.589 2.146-0.778 0.77-0.189 1.54-0.283 2.311-0.283 1.053 0 1.926 0.189 2.617 0.566s1.21 0.896 1.556 1.556c0.346 0.66 0.519 1.415 0.519 2.264v7.404h-2.452l-0.66-2.193 1.462-0.424c-0.267 0.927-0.762 1.651-1.485 2.169-0.707 0.519-1.603 0.778-2.688 0.778zM86.193 24.077c0.566 0 1.021-0.141 1.368-0.424s0.519-0.66 0.519-1.132c0-0.487-0.173-0.865-0.519-1.132-0.346-0.283-0.802-0.424-1.368-0.424s-1.021 0.141-1.368 0.424c-0.346 0.267-0.519 0.644-0.519 1.132 0 0.472 0.173 0.849 0.519 1.132s0.802 0.424 1.368 0.424zM100.598 14.316c0.786 0 1.415 0.134 1.886 0.401 0.488 0.267 0.849 0.629 1.085 1.085 0.252 0.456 0.417 0.975 0.495 1.556 0.078 0.566 0.118 1.155 0.118 1.768v6.979h-3.089v-7.003c0-0.707-0.141-1.179-0.424-1.415-0.267-0.236-0.613-0.354-1.037-0.354-0.393 0-0.794 0.079-1.203 0.236-0.408 0.141-0.794 0.354-1.155 0.637-0.346 0.267-0.644 0.574-0.896 0.92l-0.401-1.603h0.778v8.583h-3.089v-11.53h2.311l0.637 2.216-0.99-0.047c0.408-0.472 0.872-0.888 1.391-1.25 0.535-0.362 1.101-0.644 1.698-0.849 0.597-0.22 1.226-0.33 1.886-0.33z"></path>
</symbol>
<symbol id="icon-sugar" viewBox="0 0 150 32">
<path fill="#79a35d" style="fill: var(--color1, #79a35d)" d="M12.007 0.073c0.197 0.1 0.384 0.209 0.572 0.325 0.068 0.040 0.136 0.080 0.207 0.122 0.198 0.117 0.394 0.236 0.59 0.355 0.135 0.080 0.27 0.159 0.406 0.238 0.124 0.072 0.246 0.145 0.369 0.218 0.23 0.136 0.462 0.27 0.694 0.403 0.036 0.021 0.072 0.041 0.109 0.062 0.179 0.103 0.358 0.205 0.537 0.307 0.192 0.11 0.383 0.222 0.573 0.334 0.054 0.031 0.108 0.062 0.163 0.094 0.049 0.030 0.098 0.060 0.148 0.090 0.042 0.025 0.083 0.050 0.126 0.075 0.287 0.261 0.427 0.458 0.457 0.859 0.001 0.255-0.010 0.51-0.023 0.764-0.011 0.232-0.015 0.465-0.021 0.697-0.010 0.432-0.021 0.863-0.044 1.294-0.138 1.323-0.138 1.323 0.284 2.513 0.381 0.324 0.811 0.506 1.28 0.668 0.244 0.088 0.444 0.202 0.664 0.34 0.062 0.035 0.123 0.071 0.187 0.107 0.561 0.323 1.122 0.647 1.679 0.978 0.051 0.030 0.103 0.060 0.155 0.091 0.587 0.351 0.587 0.351 0.696 0.678 0.006 0.129 0.007 0.259 0.007 0.388 0 0.080 0 0.16 0 0.243-0 0.087-0.001 0.175-0.001 0.262-0 0.089-0 0.179-0 0.268-0 0.235-0.001 0.47-0.002 0.706-0.001 0.24-0.001 0.48-0.001 0.72-0.001 0.471-0.002 0.942-0.003 1.413 0.038-0.004 0.076-0.009 0.115-0.013 0.050-0.006 0.1-0.011 0.152-0.017 0.074-0.008 0.074-0.008 0.15-0.017 2.001-0.203 4.158 0.469 5.714 1.735 0.168 0.142 0.332 0.289 0.493 0.438 0.059 0.054 0.118 0.108 0.179 0.164 0.85 0.812 1.759 2 1.975 3.185 0.004 0.269-0.004 0.37-0.178 0.589-0.212 0.162-0.301 0.2-0.563 0.18-0.072-0.004-0.072-0.004-0.146-0.008-0.213-0.069-0.27-0.171-0.393-0.359-0.105-0.207-0.198-0.418-0.293-0.629-0.247-0.534-0.509-0.985-0.895-1.434-0.044-0.053-0.088-0.107-0.134-0.162-1.213-1.416-2.912-2.14-4.741-2.338-1.743-0.124-3.508 0.483-4.833 1.611-0.187 0.165-0.365 0.338-0.542 0.514-0.044 0.043-0.088 0.085-0.133 0.129-1.186 1.229-1.774 3.038-1.751 4.725 0.067 1.555 0.576 3.105 1.634 4.271 0.066 0.078 0.066 0.078 0.134 0.158 1.057 1.227 2.587 1.981 4.178 2.217 2.118 0.136 3.907-0.353 5.53-1.732 0.722-0.658 1.254-1.471 1.677-2.347 0.081-0.162 0.143-0.28 0.294-0.384 0.264-0.080 0.487-0.071 0.738 0.041 0.149 0.119 0.206 0.178 0.262 0.359 0.031 0.372-0.049 0.599-0.219 0.918-0.023 0.044-0.045 0.087-0.069 0.132-1.040 1.967-2.755 3.422-4.875 4.092-2.059 0.625-4.4 0.417-6.301-0.595-1.934-1.076-3.421-2.849-4.049-4.978-0.538-1.941-0.248-3.744 0.324-5.631-0.042-0.023-0.084-0.046-0.127-0.070-1.381-0.769-1.381-0.769-1.991-1.129-0.041-0.024-0.083-0.048-0.125-0.072-0.234-0.136-0.461-0.28-0.685-0.433-0.052-0.034-0.104-0.067-0.157-0.102-0.1-0.065-0.198-0.132-0.294-0.202-0.15-0.095-0.258-0.151-0.434-0.18-0.277 0.081-0.506 0.223-0.75 0.375-0.115 0.065-0.229 0.13-0.344 0.195-0.117 0.069-0.234 0.138-0.351 0.207-0.131 0.077-0.261 0.154-0.392 0.23-0.067 0.040-0.134 0.079-0.204 0.12-0.425 0.248-0.851 0.493-1.278 0.738-0.354 0.204-0.705 0.41-1.053 0.624-0.255 0.144-0.465 0.153-0.753 0.135-0.181-0.065-0.181-0.065-0.371-0.164-0.036-0.019-0.073-0.038-0.11-0.057-0.504-0.268-0.995-0.562-1.486-0.852-0.345-0.203-0.691-0.404-1.038-0.604-0.205-0.118-0.41-0.237-0.615-0.355-0.235-0.136-0.471-0.27-0.708-0.403-0.049-0.028-0.098-0.056-0.149-0.084-0.089-0.050-0.177-0.1-0.267-0.148-0.304-0.174-0.51-0.373-0.604-0.718-0.034-0.235-0.035-0.468-0.035-0.705-0-0.052-0-0.105-0.001-0.159-0.001-0.173-0.001-0.345-0.001-0.518-0-0.12-0-0.241-0.001-0.361-0-0.252-0-0.505-0-0.757 0-0.323-0.001-0.645-0.002-0.968-0.001-0.249-0.001-0.497-0.001-0.746-0-0.119-0-0.238-0.001-0.357-0.001-0.167-0-0.333-0-0.5-0-0.049-0.001-0.098-0.001-0.148 0.002-0.375 0.035-0.706 0.283-1.004 0.171-0.143 0.337-0.253 0.532-0.361 0.070-0.040 0.141-0.079 0.213-0.12 0.076-0.042 0.152-0.084 0.227-0.126 0.119-0.067 0.237-0.133 0.355-0.2 0.080-0.045 0.161-0.091 0.241-0.136 0.382-0.215 0.76-0.435 1.138-0.656 0.111-0.065 0.221-0.13 0.332-0.195 0.057-0.037 0.114-0.073 0.173-0.111 0.181-0.097 0.32-0.145 0.516-0.197 0.376-0.122 0.667-0.258 0.882-0.603 0.237-0.775 0.127-1.69 0.1-2.488-0.012-0.373-0.016-0.746-0.020-1.119-0.004-0.29-0.008-0.58-0.017-0.87-0.002-0.080-0.002-0.080-0.004-0.162-0.002-0.099-0.006-0.198-0.010-0.297-0.006-0.3 0.043-0.497 0.202-0.751 0.32-0.319 0.718-0.521 1.109-0.742 0.109-0.062 0.218-0.124 0.327-0.187 0.113-0.064 0.226-0.129 0.339-0.193 0.285-0.162 0.569-0.326 0.853-0.491 0.136-0.078 0.271-0.156 0.407-0.234 0.321-0.184 0.64-0.371 0.955-0.566 0.087-0.053 0.087-0.053 0.175-0.107 0.106-0.065 0.212-0.131 0.317-0.199 0.465-0.28 0.948-0.34 1.462-0.146zM11.043 1.498c-0.070 0.040-0.141 0.081-0.214 0.122-0.077 0.044-0.155 0.089-0.232 0.133-0.079 0.045-0.157 0.090-0.236 0.135-0.163 0.094-0.326 0.187-0.49 0.281-0.201 0.116-0.403 0.231-0.605 0.347-0.186 0.106-0.371 0.212-0.556 0.319-0.070 0.040-0.139 0.079-0.211 0.12-0.064 0.037-0.128 0.074-0.194 0.112-0.056 0.032-0.113 0.064-0.171 0.098-0.142 0.081-0.142 0.081-0.261 0.209 0.032 0.016 0.063 0.031 0.096 0.047 0.54 0.268 1.080 0.536 1.613 0.817 0.098 0.052 0.196 0.103 0.295 0.153 0.246 0.127 0.48 0.26 0.709 0.415 0.421 0.292 0.421 0.292 0.91 0.365 0.273-0.088 0.505-0.243 0.742-0.4 0.237-0.149 0.492-0.264 0.744-0.386 0.641-0.317 1.267-0.662 1.891-1.012-0.157-0.176-0.331-0.279-0.536-0.394-0.071-0.040-0.141-0.080-0.214-0.121-0.077-0.043-0.153-0.086-0.23-0.129-0.158-0.089-0.316-0.179-0.475-0.269-0.040-0.023-0.080-0.045-0.122-0.069-0.473-0.268-0.942-0.544-1.411-0.82-0.059-0.034-0.117-0.069-0.177-0.104-0.051-0.030-0.103-0.061-0.156-0.092-0.213-0.118-0.307 0.004-0.511 0.121zM7.188 4.5c0 1.382 0 2.764 0 4.188 0.516 0.289 1.031 0.578 1.562 0.875 0.273 0.158 0.545 0.316 0.816 0.477 0.12 0.071 0.241 0.142 0.362 0.213 0.050 0.030 0.101 0.060 0.152 0.090 0.219 0.123 0.445 0.233 0.67 0.345 0-1.444 0-2.888 0-4.375-0.516-0.268-1.031-0.536-1.562-0.813-1.247-0.654-1.247-0.654-1.754-0.94-0.117-0.069-0.117-0.069-0.246-0.060zM15.178 4.661c-0.067 0.035-0.134 0.070-0.204 0.106-0.109 0.057-0.109 0.057-0.221 0.116-0.075 0.039-0.15 0.079-0.225 0.118-0.117 0.061-0.235 0.123-0.352 0.184-0.282 0.148-0.566 0.295-0.849 0.441-0.078 0.040-0.156 0.080-0.234 0.121-0.149 0.077-0.299 0.154-0.449 0.231-0.067 0.035-0.135 0.070-0.204 0.106-0.060 0.031-0.119 0.062-0.181 0.093-0.13 0.062-0.13 0.062-0.198 0.136-0.006 0.136-0.007 0.272-0.007 0.409 0 0.043 0 0.085 0 0.129 0 0.142 0.001 0.283 0.001 0.425 0 0.098 0 0.196 0 0.294 0 0.258 0.001 0.517 0.002 0.775 0.001 0.263 0.001 0.527 0.001 0.791 0.001 0.517 0.002 1.035 0.003 1.552 0.109-0.060 0.218-0.119 0.328-0.179 0.091-0.050 0.091-0.050 0.184-0.1 0.707-0.386 1.409-0.781 2.106-1.186 0.065-0.038 0.13-0.075 0.197-0.114 0.061-0.036 0.122-0.071 0.185-0.108 0.054-0.032 0.109-0.063 0.165-0.096 0.049-0.030 0.098-0.060 0.148-0.092 0.044-0.025 0.088-0.049 0.132-0.074 0.135-0.107 0.135-0.107 0.148-0.292-0.001-0.073-0.001-0.146-0.002-0.221 0-0.040 0-0.081 0-0.122-0-0.133-0.002-0.266-0.004-0.399-0.001-0.092-0.001-0.184-0.001-0.277-0.001-0.243-0.003-0.485-0.006-0.728-0.003-0.248-0.004-0.495-0.005-0.743-0.003-0.486-0.007-0.971-0.012-1.457-0.179 0-0.289 0.078-0.447 0.161zM6.115 9.982c-0.064 0.036-0.129 0.073-0.195 0.11-0.069 0.039-0.138 0.079-0.208 0.119s-0.141 0.080-0.213 0.121c-0.487 0.277-0.972 0.557-1.454 0.844-0.153 0.091-0.307 0.181-0.463 0.268-0.069 0.039-0.139 0.078-0.21 0.119-0.060 0.034-0.12 0.067-0.182 0.102-0.063 0.043-0.063 0.043-0.127 0.086 0 0.041 0 0.083 0 0.125 0.090 0.046 0.090 0.046 0.182 0.093 0.179 0.092 0.357 0.183 0.536 0.275 0.201 0.104 0.403 0.207 0.605 0.31 0.848 0.434 0.848 0.434 1.262 0.665 0.054 0.030 0.108 0.060 0.164 0.090 0.095 0.053 0.189 0.107 0.283 0.162 0.24 0.133 0.24 0.133 0.505 0.117 0.293-0.12 0.573-0.263 0.855-0.408 0.061-0.031 0.122-0.063 0.185-0.095 0.129-0.066 0.258-0.132 0.387-0.198 0.197-0.101 0.394-0.202 0.591-0.303 0.125-0.064 0.251-0.129 0.376-0.193 0.059-0.030 0.117-0.060 0.178-0.091 0.261-0.134 0.518-0.269 0.767-0.425-0.080-0.24-0.155-0.257-0.373-0.375-0.065-0.036-0.13-0.071-0.197-0.108-0.070-0.038-0.14-0.075-0.212-0.114-0.143-0.079-0.287-0.158-0.43-0.237-0.071-0.039-0.141-0.078-0.214-0.117-0.266-0.147-0.528-0.3-0.79-0.455-0.042-0.025-0.085-0.050-0.128-0.076-0.182-0.108-0.362-0.216-0.541-0.327-0.056-0.035-0.112-0.069-0.17-0.105-0.046-0.029-0.093-0.058-0.14-0.088-0.25-0.128-0.403-0.018-0.628 0.109zM15.871 9.985c-0.064 0.038-0.129 0.075-0.195 0.114-0.070 0.041-0.139 0.082-0.211 0.124s-0.144 0.084-0.216 0.126c-0.151 0.088-0.302 0.177-0.453 0.265-0.343 0.201-0.687 0.399-1.031 0.597-0.107 0.062-0.213 0.123-0.32 0.185-0.097 0.056-0.097 0.056-0.196 0.113-0.057 0.033-0.114 0.066-0.173 0.1-0.086 0.049-0.174 0.096-0.263 0.141 0 0.041 0 0.083 0 0.125 0.053 0.026 0.053 0.026 0.107 0.053 0.635 0.315 1.269 0.632 1.896 0.962 0.049 0.026 0.097 0.051 0.147 0.077 0.22 0.116 0.439 0.234 0.655 0.358 0.037 0.021 0.074 0.042 0.112 0.064 0.097 0.055 0.194 0.111 0.29 0.168 0.202 0.082 0.271 0.063 0.479 0.005 0.127-0.058 0.253-0.12 0.376-0.185 0.036-0.019 0.072-0.037 0.109-0.057 0.117-0.061 0.234-0.123 0.351-0.184 0.081-0.042 0.162-0.084 0.243-0.127 0.164-0.086 0.329-0.172 0.493-0.259 0.294-0.154 0.588-0.307 0.882-0.461 0.266-0.138 0.531-0.277 0.797-0.416 0-0.041 0-0.083 0-0.125-0.044-0.025-0.089-0.051-0.135-0.077-0.173-0.099-0.347-0.198-0.52-0.297-0.118-0.067-0.237-0.135-0.355-0.202-0.405-0.231-0.809-0.463-1.211-0.699-0.075-0.044-0.149-0.087-0.224-0.131-0.142-0.083-0.283-0.166-0.424-0.249-0.064-0.037-0.128-0.074-0.193-0.113-0.056-0.033-0.112-0.066-0.17-0.1-0.269-0.132-0.406-0.040-0.647 0.102zM12.062 12.938c0 1.382 0 2.764 0 4.187 0.804 0.464 0.804 0.464 1.625 0.938 0.166 0.096 0.332 0.193 0.503 0.292 0.067 0.039 0.133 0.077 0.202 0.117 0.131 0.076 0.263 0.153 0.394 0.23 0.065 0.038 0.13 0.075 0.197 0.114 0.056 0.033 0.112 0.065 0.17 0.099 0.154 0.083 0.309 0.147 0.471 0.21 0.012-0.557 0.020-1.114 0.026-1.671 0.003-0.259 0.006-0.517 0.012-0.776 0.005-0.25 0.008-0.499 0.010-0.749 0.001-0.095 0.003-0.19 0.005-0.285 0.034-0.505 0.034-0.505-0.148-0.951-0.132-0.085-0.258-0.139-0.405-0.193-0.091-0.047-0.181-0.096-0.271-0.145-0.096-0.049-0.193-0.099-0.289-0.148-0.052-0.027-0.104-0.053-0.157-0.080-0.164-0.084-0.329-0.168-0.494-0.252-0.11-0.056-0.22-0.112-0.33-0.168-0.506-0.259-1.014-0.515-1.522-0.769zM2.313 13c-0.032 0.524-0.056 1.047-0.071 1.571-0.007 0.244-0.017 0.487-0.033 0.73-0.103 1.044-0.103 1.044 0.229 1.987 0.322 0.273 0.686 0.433 1.078 0.582 0.231 0.091 0.434 0.212 0.643 0.343 0.132 0.076 0.263 0.152 0.395 0.228 0.067 0.039 0.134 0.078 0.203 0.118 0.066 0.038 0.131 0.076 0.198 0.115 0.057 0.033 0.113 0.066 0.172 0.099 0.224 0.124 0.455 0.237 0.684 0.352 0-1.444 0-2.887 0-4.375-0.634-0.326-0.634-0.326-1.267-0.652-0.55-0.283-1.099-0.568-1.643-0.862-0.195-0.104-0.373-0.189-0.59-0.236zM10.448 13.056c-0.051 0.026-0.102 0.052-0.154 0.079-0.084 0.043-0.084 0.043-0.169 0.086-0.058 0.029-0.115 0.059-0.174 0.089-0.123 0.063-0.245 0.125-0.367 0.188-0.184 0.094-0.369 0.188-0.554 0.282-0.119 0.061-0.239 0.122-0.358 0.183-0.081 0.041-0.081 0.041-0.164 0.083-0.47 0.242-0.921 0.503-1.382 0.766 0 1.444 0 2.887 0 4.375 1.114-0.608 2.223-1.224 3.312-1.875 0.083-0.038 0.083-0.038 0.167-0.076 0.164-0.1 0.164-0.1 0.183-0.293-0.001-0.111-0.001-0.111-0.002-0.224 0-0.061 0-0.061 0-0.124-0-0.135-0.003-0.27-0.005-0.405-0.001-0.094-0.001-0.187-0.001-0.281-0.001-0.246-0.004-0.493-0.008-0.739-0.003-0.251-0.005-0.503-0.006-0.754-0.003-0.493-0.009-0.986-0.015-1.479-0.111 0-0.205 0.068-0.302 0.118zM20.122 13.098c-0.101 0.053-0.101 0.053-0.204 0.106-0.074 0.039-0.148 0.077-0.222 0.116-0.075 0.039-0.151 0.079-0.226 0.118-0.158 0.082-0.317 0.165-0.475 0.247-0.358 0.186-0.716 0.372-1.074 0.557-0.111 0.057-0.222 0.115-0.332 0.172-0.067 0.035-0.134 0.070-0.204 0.106-0.089 0.046-0.089 0.046-0.18 0.093-0.089 0.046-0.178 0.091-0.267 0.136 0 1.114 0 2.228 0 3.375 0.144-0.124 0.289-0.247 0.437-0.375 0.943-0.792 1.955-1.36 3.125-1.75 0-1.011 0-2.021 0-3.062-0.131 0-0.267 0.102-0.378 0.161z"></path>
<path fill="#79a35d" style="fill: var(--color1, #79a35d)" d="M25.698 18.902c0.17 0.137 0.284 0.248 0.324 0.466 0.015 0.21 0.021 0.38-0.097 0.561-0.034 0.037-0.069 0.074-0.104 0.112-0.040 0.043-0.080 0.086-0.121 0.131-0.262 0.271-0.526 0.539-0.792 0.805-0.065 0.065-0.13 0.13-0.195 0.196-0.175 0.176-0.351 0.351-0.527 0.527-0.184 0.184-0.368 0.368-0.552 0.552-0.309 0.309-0.617 0.617-0.926 0.926-0.357 0.357-0.714 0.714-1.071 1.071-0.307 0.307-0.614 0.614-0.921 0.921-0.183 0.183-0.366 0.366-0.55 0.55-0.172 0.172-0.344 0.344-0.516 0.515-0.063 0.063-0.126 0.126-0.189 0.189-0.086 0.086-0.172 0.172-0.258 0.258-0.048 0.048-0.096 0.096-0.146 0.146-0.172 0.16-0.282 0.184-0.512 0.192-0.071 0.004-0.071 0.004-0.144 0.007-0.211-0.038-0.309-0.129-0.462-0.277-0.77-1.162-0.949-2.782-0.683-4.126 0.336-1.416 1.152-2.71 2.38-3.519 1.792-1.062 4.229-1.412 6.063-0.204zM19.5 21c-0.838 0.987-1.101 2.175-1 3.437 0.039 0.277 0.106 0.545 0.187 0.813 0.336-0.281 0.649-0.578 0.958-0.888 0.050-0.050 0.1-0.1 0.152-0.152 0.164-0.164 0.328-0.329 0.492-0.493 0.114-0.114 0.229-0.229 0.343-0.343 0.269-0.269 0.538-0.539 0.807-0.809 0.307-0.307 0.613-0.614 0.92-0.921 0.63-0.631 1.261-1.262 1.891-1.894-1.47-0.98-3.717 0.119-4.75 1.25z"></path>
<path fill="#79a35d" style="fill: var(--color1, #79a35d)" d="M27.5 20.688c0.142 0.129 0.216 0.215 0.313 0.375 0.026 0.042 0.051 0.083 0.077 0.126 0.695 1.261 0.814 2.877 0.423 4.248-0.248 0.77-0.605 1.444-1.125 2.062-0.037 0.046-0.074 0.093-0.113 0.14-0.733 0.877-1.785 1.464-2.887 1.735-0.078 0.021-0.078 0.021-0.157 0.043-1.368 0.314-2.835 0.025-4.042-0.654-0.229-0.154-0.292-0.227-0.355-0.505-0.038-0.247 0.043-0.365 0.18-0.57 0.093-0.104 0.189-0.204 0.287-0.303 0.029-0.029 0.057-0.058 0.087-0.087 0.095-0.096 0.191-0.191 0.287-0.287 0.069-0.069 0.137-0.138 0.206-0.207 0.186-0.187 0.373-0.373 0.559-0.559 0.195-0.195 0.39-0.39 0.585-0.586 0.327-0.328 0.655-0.655 0.983-0.982 0.379-0.379 0.758-0.758 1.137-1.137 0.325-0.326 0.65-0.651 0.976-0.976 0.194-0.194 0.389-0.388 0.583-0.583 0.182-0.183 0.365-0.365 0.548-0.547 0.067-0.067 0.134-0.134 0.201-0.201 0.091-0.092 0.183-0.183 0.274-0.274 0.077-0.077 0.077-0.077 0.155-0.155 0.248-0.218 0.515-0.211 0.819-0.116zM26.656 22.703c-0.068 0.068-0.068 0.068-0.138 0.137-0.050 0.050-0.1 0.1-0.151 0.152-0.079 0.078-0.079 0.078-0.159 0.158-0.144 0.144-0.288 0.288-0.432 0.432-0.15 0.15-0.301 0.301-0.451 0.451-0.252 0.252-0.505 0.505-0.757 0.758-0.292 0.293-0.584 0.584-0.877 0.876-0.251 0.25-0.501 0.501-0.752 0.751-0.15 0.15-0.299 0.3-0.449 0.449-0.167 0.167-0.334 0.334-0.5 0.501-0.075 0.075-0.075 0.075-0.152 0.151-0.045 0.045-0.090 0.091-0.137 0.138-0.040 0.040-0.079 0.079-0.12 0.12-0.097 0.094-0.097 0.094-0.084 0.224 1.186 0.346 2.361 0.255 3.457-0.335 0.389-0.237 0.733-0.518 1.043-0.853 0.038-0.037 0.076-0.075 0.115-0.114 0.777-0.807 1.11-1.897 1.099-3-0.015-0.414-0.097-0.802-0.213-1.199-0.178 0-0.219 0.078-0.344 0.203z"></path>
<path fill="#79a35d" style="fill: var(--color1, #79a35d)" d="M30.688 23.437c0.183 0.143 0.288 0.248 0.371 0.465 0.007 0.287-0.063 0.47-0.254 0.684-0.231 0.131-0.423 0.157-0.68 0.102-0.274-0.147-0.274-0.147-0.375-0.313-0.050-0.218-0.049-0.407 0-0.625 0.272-0.361 0.505-0.417 0.938-0.313z"></path>
<path fill="#79a35d" style="fill: var(--color1, #79a35d)" d="M47.377 21.43c-0.896 0-1.745-0.134-2.547-0.401s-1.525-0.684-2.169-1.25c-0.629-0.566-1.163-1.305-1.603-2.216l2.452-1.485c0.487 0.833 1.061 1.454 1.721 1.863s1.423 0.613 2.287 0.613c0.786 0 1.383-0.165 1.792-0.495 0.409-0.346 0.613-0.802 0.613-1.368 0-0.362-0.094-0.668-0.283-0.92-0.173-0.267-0.487-0.519-0.943-0.755s-1.116-0.448-1.981-0.637c-1.289-0.314-2.303-0.707-3.042-1.179-0.723-0.472-1.234-1.022-1.533-1.651-0.299-0.644-0.448-1.352-0.448-2.122 0-0.927 0.22-1.737 0.66-2.429 0.456-0.707 1.1-1.265 1.933-1.674s1.823-0.613 2.971-0.613c1.32 0 2.429 0.259 3.325 0.778 0.896 0.503 1.627 1.187 2.193 2.051l-2.452 1.674c-0.44-0.566-0.943-0.967-1.509-1.203-0.55-0.252-1.116-0.377-1.698-0.377-0.755 0-1.336 0.149-1.745 0.448-0.393 0.299-0.589 0.715-0.589 1.25 0 0.472 0.196 0.88 0.589 1.226 0.409 0.33 1.195 0.637 2.358 0.92 1.32 0.314 2.374 0.7 3.16 1.155s1.344 1.006 1.674 1.651c0.346 0.644 0.519 1.423 0.519 2.334s-0.236 1.729-0.707 2.452c-0.456 0.723-1.116 1.297-1.981 1.721-0.849 0.424-1.855 0.637-3.018 0.637zM58.893 21.336c-0.864 0-1.556-0.134-2.075-0.401s-0.92-0.621-1.203-1.061c-0.267-0.456-0.448-0.975-0.542-1.556s-0.141-1.187-0.141-1.816v-6.979h3.089v7.003c0 0.707 0.149 1.179 0.448 1.415 0.314 0.236 0.684 0.354 1.108 0.354 0.393 0 0.786-0.071 1.179-0.212s0.762-0.346 1.108-0.613c0.362-0.283 0.66-0.605 0.896-0.967l0.377 1.627h-0.755v-8.606h3.089v11.53h-2.311l-0.637-2.193 0.99 0.024c-0.393 0.456-0.841 0.872-1.344 1.25-0.487 0.377-1.014 0.676-1.58 0.896-0.55 0.204-1.116 0.307-1.698 0.307zM73.108 25.768c-0.629 0-1.258-0.094-1.886-0.283-0.613-0.189-1.179-0.495-1.698-0.92-0.519-0.409-0.959-0.967-1.32-1.674l-0.189-0.377 2.287-1.179c0.393 0.629 0.802 1.085 1.226 1.368 0.424 0.299 0.959 0.448 1.603 0.448 0.802 0 1.446-0.252 1.933-0.755 0.503-0.503 0.755-1.273 0.755-2.311v-2.9h0.212v-4.952h-0.212l0.755-2.712h2.334v9.95c0 1.352-0.244 2.499-0.731 3.443-0.472 0.943-1.14 1.651-2.004 2.122-0.865 0.487-1.886 0.731-3.065 0.731zM72.707 20.416c-1.037 0-1.957-0.236-2.759-0.707s-1.43-1.124-1.886-1.957c-0.456-0.833-0.684-1.8-0.684-2.9s0.22-2.067 0.66-2.9c0.456-0.849 1.085-1.509 1.886-1.981s1.721-0.707 2.759-0.707c0.975 0 1.831 0.236 2.57 0.707 0.739 0.456 1.313 1.108 1.721 1.957 0.409 0.833 0.613 1.808 0.613 2.924 0 1.148-0.204 2.138-0.613 2.971-0.393 0.817-0.959 1.454-1.698 1.91-0.723 0.456-1.58 0.684-2.57 0.684zM73.25 17.704c0.802 0 1.454-0.267 1.957-0.802s0.755-1.226 0.755-2.075-0.252-1.54-0.755-2.075c-0.503-0.534-1.155-0.802-1.957-0.802s-1.462 0.267-1.981 0.802c-0.503 0.534-0.755 1.234-0.755 2.099 0 0.833 0.251 1.517 0.755 2.051 0.519 0.534 1.179 0.802 1.981 0.802zM84.952 21.383c-0.849 0-1.595-0.157-2.24-0.472-0.645-0.33-1.14-0.786-1.485-1.368-0.346-0.597-0.519-1.289-0.519-2.075s0.181-1.47 0.542-2.051c0.377-0.582 0.888-1.030 1.533-1.344 0.644-0.33 1.375-0.495 2.193-0.495 1.117 0 2.020 0.259 2.712 0.778 0.707 0.503 1.187 1.226 1.438 2.169l-1.438-0.189v-2.782c0-0.44-0.157-0.833-0.472-1.179s-0.825-0.519-1.533-0.519c-0.44 0-0.927 0.055-1.462 0.165-0.534 0.094-1.092 0.283-1.674 0.566l-0.92-2.264c0.676-0.33 1.391-0.589 2.146-0.778 0.77-0.189 1.541-0.283 2.31-0.283 1.053 0 1.926 0.189 2.617 0.566s1.211 0.896 1.556 1.556c0.346 0.66 0.519 1.415 0.519 2.264v7.404h-2.452l-0.66-2.193 1.462-0.424c-0.267 0.927-0.762 1.651-1.485 2.169-0.707 0.519-1.603 0.778-2.688 0.778zM85.801 19.025c0.566 0 1.022-0.141 1.368-0.424s0.519-0.66 0.519-1.132c0-0.487-0.173-0.865-0.519-1.132-0.345-0.283-0.802-0.424-1.368-0.424s-1.021 0.141-1.368 0.424c-0.346 0.267-0.518 0.644-0.518 1.132 0 0.472 0.173 0.849 0.518 1.132s0.802 0.424 1.368 0.424zM95.585 9.523l0.778 3.183v8.347h-3.089v-11.53h2.311zM95.726 14.285l-0.566-0.259v-2.358l0.212-0.259c0.173-0.283 0.433-0.589 0.778-0.92 0.362-0.33 0.771-0.613 1.226-0.849 0.472-0.252 0.959-0.377 1.462-0.377 0.252 0 0.48 0.016 0.684 0.047s0.362 0.086 0.472 0.165v2.806h-0.755c-1.021 0-1.807 0.165-2.358 0.495-0.55 0.314-0.935 0.817-1.155 1.509zM108.722 21.053v-12.403c0-0.849 0.149-1.564 0.448-2.146 0.314-0.597 0.746-1.045 1.297-1.344s1.203-0.448 1.957-0.448c0.377 0 0.715 0.024 1.014 0.071s0.542 0.094 0.731 0.141v2.829c-0.157-0.031-0.323-0.063-0.495-0.094-0.157-0.031-0.346-0.047-0.566-0.047-0.393 0-0.707 0.118-0.943 0.354-0.236 0.22-0.354 0.589-0.354 1.108v11.978h-3.089zM113.909 12.611h-6.814v-2.829h6.814v2.829zM117.99 9.523l0.778 3.183v8.347h-3.089v-11.53h2.311zM118.131 14.285l-0.566-0.259v-2.358l0.212-0.259c0.173-0.283 0.432-0.589 0.778-0.92 0.361-0.33 0.77-0.613 1.226-0.849 0.472-0.252 0.958-0.377 1.462-0.377 0.251 0 0.479 0.016 0.684 0.047s0.361 0.086 0.472 0.165v2.806h-0.755c-1.022 0-1.808 0.165-2.358 0.495-0.551 0.314-0.936 0.817-1.155 1.509zM128.623 21.288c-1.148 0-2.154-0.244-3.018-0.731-0.865-0.503-1.533-1.203-2.004-2.099s-0.707-1.949-0.707-3.16c0-1.195 0.236-2.24 0.707-3.136 0.472-0.912 1.139-1.619 2.004-2.122 0.864-0.519 1.87-0.778 3.018-0.778 1.163 0 2.169 0.259 3.018 0.778 0.864 0.519 1.533 1.234 2.004 2.146 0.472 0.896 0.707 1.926 0.707 3.089 0 0.173-0.008 0.346-0.024 0.519 0 0.157-0.016 0.291-0.047 0.401h-8.866v-2.311h6.531l-0.472 1.108c0-0.975-0.236-1.768-0.707-2.381-0.456-0.613-1.171-0.92-2.146-0.92-0.849 0-1.533 0.267-2.051 0.802-0.519 0.519-0.778 1.218-0.778 2.099v1.25c0 0.927 0.259 1.658 0.778 2.193 0.534 0.519 1.257 0.778 2.169 0.778 0.802 0 1.43-0.165 1.886-0.495s0.849-0.739 1.179-1.226l2.146 1.226c-0.519 0.959-1.226 1.698-2.122 2.216-0.881 0.503-1.949 0.755-3.207 0.755zM141.288 21.288c-1.148 0-2.154-0.244-3.018-0.731-0.865-0.503-1.533-1.203-2.004-2.099s-0.707-1.949-0.707-3.16c0-1.195 0.236-2.24 0.707-3.136 0.472-0.912 1.139-1.619 2.004-2.122 0.864-0.519 1.87-0.778 3.018-0.778 1.163 0 2.169 0.259 3.018 0.778 0.864 0.519 1.533 1.234 2.004 2.146 0.472 0.896 0.707 1.926 0.707 3.089 0 0.173-0.008 0.346-0.024 0.519 0 0.157-0.016 0.291-0.047 0.401h-8.866v-2.311h6.531l-0.472 1.108c0-0.975-0.236-1.768-0.707-2.381-0.456-0.613-1.171-0.92-2.146-0.92-0.849 0-1.533 0.267-2.051 0.802-0.519 0.519-0.778 1.218-0.778 2.099v1.25c0 0.927 0.259 1.658 0.778 2.193 0.534 0.519 1.257 0.778 2.169 0.778 0.802 0 1.43-0.165 1.886-0.495s0.849-0.739 1.179-1.226l2.146 1.226c-0.519 0.959-1.226 1.698-2.122 2.216-0.881 0.503-1.949 0.755-3.207 0.755z"></path>
</symbol>
<symbol id="icon-logo" viewBox="0 0 32 32">
<path fill="none" stroke="#fcf3f6" style="stroke: var(--color2, #fcf3f6)" stroke-linejoin="round" stroke-linecap="round" stroke-miterlimit="4" stroke-width="2.4615" d="M28.496 13.060c-0.539-0.011-1.069-0.14-1.552-0.378s-0.909-0.58-1.245-1.001-0.577-0.911-0.703-1.434c-0.126-0.524-0.136-1.069-0.028-1.597h-0.147c-0.762 0.008-1.512-0.185-2.175-0.559s-1.217-0.916-1.604-1.572c-0.387-0.656-0.595-1.402-0.603-2.163s0.186-1.512 0.56-2.175c-3.074-1.124-6.435-1.19-9.55-0.188s-5.808 3.016-7.649 5.721c-1.842 2.705-2.728 5.948-2.519 9.214s1.502 6.369 3.675 8.817c2.172 2.448 5.099 4.101 8.317 4.698s6.543 0.102 9.448-1.405c2.905-1.507 5.224-3.94 6.59-6.914s1.7-6.319 0.95-9.505c-0.441 0.294-1.176 0.441-1.764 0.441z"></path>
<path fill="none" stroke="#fcf3f6" style="stroke: var(--color2, #fcf3f6)" stroke-linejoin="round" stroke-linecap="round" stroke-miterlimit="4" stroke-width="2.4615" d="M16 20.41c2.436 0 4.41-1.975 4.41-4.41s-1.975-4.41-4.41-4.41c-2.436 0-4.41 1.975-4.41 4.41s1.975 4.41 4.41 4.41z"></path>
</symbol>
<symbol id="icon-serch" viewBox="0 0 32 32">
<path fill="#fcf3f6" style="fill: var(--color2, #fcf3f6)" d="M26.515 21.279c-0.619 1.092-0.564 2.496 0.323 3.383l3.941 3.94c0.601 0.601 0.601 1.576 0 2.177s-1.576 0.601-2.177-0l-3.94-3.941c-0.887-0.888-2.291-0.943-3.383-0.323-2.068 1.172-4.416 1.796-6.818 1.793-7.643 0-13.846-6.203-13.846-13.846s6.203-13.846 13.846-13.846c7.643 0 13.846 6.203 13.846 13.846 0.003 2.402-0.621 4.75-1.793 6.818zM22.192 21.962c1.953-2.008 3.043-4.699 3.039-7.5 0-5.949-4.82-10.769-10.769-10.769s-10.769 4.82-10.769 10.769c0 5.949 4.82 10.769 10.769 10.769 2.801 0.004 5.492-1.086 7.5-3.039l0.231-0.231z"></path>
</symbol>
<symbol id="icon-user" viewBox="0 0 33 32">
<path fill="#fcf3f6" style="fill: var(--color2, #fcf3f6)" d="M32.597 28.94c-2.057-3.609-5.268-6.422-9.117-7.984 1.914-1.436 3.328-3.437 4.041-5.721s0.69-4.734-0.066-7.004-2.208-4.244-4.149-5.643c-1.941-1.399-4.273-2.152-6.666-2.152s-4.725 0.753-6.666 2.152c-1.941 1.399-3.393 3.373-4.149 5.643s-0.78 4.72-0.066 7.004c0.713 2.284 2.127 4.285 4.041 5.721-3.849 1.563-7.060 4.375-9.117 7.984-0.127 0.205-0.212 0.433-0.25 0.672s-0.026 0.482 0.032 0.716c0.059 0.234 0.164 0.454 0.309 0.647s0.328 0.354 0.537 0.475 0.44 0.198 0.679 0.228c0.239 0.030 0.482 0.011 0.715-0.055s0.448-0.178 0.636-0.33c0.188-0.152 0.343-0.339 0.457-0.552 2.718-4.698 7.518-7.5 12.841-7.5s10.124 2.804 12.841 7.5c0.247 0.397 0.638 0.682 1.091 0.796s0.933 0.046 1.338-0.188 0.702-0.616 0.83-1.065c0.128-0.449 0.077-0.931-0.144-1.343zM8.84 11.84c0-1.543 0.457-3.051 1.315-4.333s2.075-2.282 3.501-2.873c1.425-0.59 2.994-0.745 4.507-0.444s2.903 1.044 3.994 2.135c1.091 1.091 1.834 2.481 2.135 3.994s0.146 3.081-0.444 4.507c-0.59 1.425-1.59 2.643-2.873 3.5s-2.791 1.315-4.333 1.315c-2.068-0.002-4.051-0.825-5.513-2.287s-2.285-3.445-2.287-5.513z"></path>
</symbol>
<symbol id="icon-basket" viewBox="0 0 34 32">
<path fill="#fcf3f6" style="fill: var(--color2, #fcf3f6)" d="M33.557 13.857l-1.95-5.743-13.136-7.436c-0.407-0.225-0.864-0.343-1.329-0.343s-0.922 0.118-1.329 0.343l-13.136 7.436-1.95 5.743c-0.209 0.596-0.198 1.247 0.030 1.836s0.658 1.078 1.213 1.378l0.707 0.386v4.971c0.031 0.441 0.17 0.867 0.406 1.241s0.56 0.684 0.944 0.902l11.786 6.664c0.407 0.225 0.864 0.343 1.329 0.343s0.922-0.118 1.329-0.343l11.786-6.664c0.384-0.218 0.709-0.528 0.944-0.902s0.375-0.8 0.406-1.241v-4.971l0.707-0.386c0.555-0.301 0.985-0.789 1.213-1.378s0.238-1.24 0.030-1.836zM21.429 20.007l-1.029-2.743 9.6-5.271 0.943 2.743-9.514 5.271zM17.143 3.014l11.7 6.557-11.7 6.429-11.7-6.429 11.7-6.557zM3.257 14.736l1.029-2.743 9.6 5.271-1.029 2.743-9.6-5.271zM5.4 18.914l9.107 4.971 1.329-3.943v8.293l-10.479-5.807 0.043-3.514zM28.929 22.429l-10.457 5.807v-8.293l1.35 3.943 9.107-4.971v3.514z"></path>
</symbol>
<symbol id="icon-arrow" viewBox="0 0 32 32">
  <path fill="#fcf3f6" style="fill: var(--color1, #fcf3f6)" d="M20.796 14.667l-7.2-7.467 1.832-1.867 10.286 10.667-10.286 10.667-1.832-1.867 7.2-7.467h-15.654v-2.667h15.654z"></path>
</symbol>
</defs>
</svg>
